<?xml version="1.0" encoding="UTF-8"?>
<svg width="350" height="400" xmlns="http://www.w3.org/2000/svg"><script xmlns=""/>
 <title>Polaroid</title>
 <defs>
  <filter id="filter2912">
   <feGaussianBlur id="feGaussianBlur2914" stdDeviation="3.478238"/>
  </filter>
  <filter id="filter3311">
   <feGaussianBlur id="feGaussianBlur3313" stdDeviation="0.075616"/>
  </filter>
  <filter id="filter3315">
   <feGaussianBlur id="feGaussianBlur3317" stdDeviation="0.075616"/>
  </filter>
  <filter id="filter3385">
   <feGaussianBlur id="feGaussianBlur3387" stdDeviation="0.558514"/>
  </filter>
 </defs>
 <metadata id="metadata7">image/svg+xml</metadata>
 <g>
  <title>Layer 1</title>
  <g id="layer1"/>
  <g display="inline" id="layer2" transform="rotate(9.98506 174 203)">
   <g id="g3401">
    <path transform="rotate(-10 174.367 205.08)" fill="#000000" stroke-width="0.95025" stroke-linejoin="round" stroke-miterlimit="4" filter="url(#filter2912)" d="m9.27756,22.345881l330.179685,0l0,365.467993c0,0 -82.544922,-7.178345 -165.089828,-7.178345c-82.544968,0 -165.089856,7.178345 -165.089856,7.178345l0,-365.467993z" id="rect2893"/>
    <rect transform="rotate(-10 173.35 199.301)" fill="#f2f2f2" stroke-width="0.945977" stroke-linejoin="round" stroke-miterlimit="4" id="rect2889" width="330.18399" height="362.18399" x="8.256575" y="18.210889"/>
    <rect transform="rotate(-10 170.458 182.922)" opacity="0.555556" fill="#cccccc" stroke-width="0.945977" stroke-linejoin="round" stroke-miterlimit="4" y="28.610677" x="17.203763" height="308.62277" width="306.51321" id="rect2916"/>
    <path transform="rotate(-10 158.161 115.418)" opacity="0.199074" fill="#ffffff" stroke-width="0.782447" stroke-linejoin="round" stroke-miterlimit="4" d="m7.99297,32.269489l300.335063,0c0,0 -47.343719,61.399052 -122.42749,102.973568c-75.08374,41.574524 -177.907603,63.324524 -177.907603,63.324524l0,-166.298092l0.00002,0l0.00001,0z" id="rect3250"/>
   </g>
  </g>
  <g display="inline" id="layer3">
   <g id="g3408">
    <path opacity="0.870466" fill="#000000" stroke-width="1.13" stroke-linejoin="round" stroke-miterlimit="4" filter="url(#filter3385)" d="m186.915558,19.491489a7.91557,10.18987 0 1 1 -15.831131,0a7.91557,10.18987 0 1 1 15.831131,0z" id="path3319"/>
    <path fill="#ff0000" stroke-width="1.13" stroke-linejoin="round" stroke-miterlimit="4" id="path3286" d="m186.915558,17.21723a7.91557,7.91557 0 1 1 -15.831131,0a7.91557,7.91557 0 1 1 15.831131,0z"/>
    <path opacity="0.621762" fill="#ffffff" stroke-width="1.13" stroke-linejoin="round" stroke-miterlimit="4" filter="url(#filter3311)" d="m183.503632,10.8034c-3.465897,-2.474039 -8.291748,-1.64641 -10.765778,1.819479c-0.736588,1.031891 -1.169205,2.171671 -1.34079,3.346071c0.235275,-0.9545 0.66304,-1.8724 1.270172,-2.72294c2.538666,-3.556419 7.44162,-4.41687 10.946304,-1.915119c1.521042,1.08576 2.54248,2.61731 2.989395,4.304199c-0.364624,-1.86908 -1.428192,-3.638809 -3.099304,-4.83169z" id="path3288"/>
    <path opacity="0.42487" fill="#000000" stroke-width="1.13" stroke-linejoin="round" stroke-miterlimit="4" filter="url(#filter3315)" id="path3293" d="m183.503632,23.638741c-3.465897,2.474049 -8.291748,1.646408 -10.765778,-1.819481c-0.736588,-1.031891 -1.169205,-2.171669 -1.34079,-3.346069c0.235275,0.954498 0.66304,1.87241 1.270172,2.722939c2.538666,3.556419 7.44162,4.41687 10.946304,1.915131c1.521042,-1.085758 2.54248,-2.61731 2.989395,-4.304209c-0.364624,1.869089 -1.428192,3.638811 -3.099304,4.83169z"/>
   </g>
  </g>
 </g>
</svg>